<?xml version="1.0" standalone="no"?>
<!DOCTYPE svg PUBLIC "-//W3C//DTD SVG 20010904//EN"
 "http://www.w3.org/TR/2001/REC-SVG-20010904/DTD/svg10.dtd">
<svg version="1.0" xmlns="http://www.w3.org/2000/svg"
 width="184.000000pt" height="184.000000pt" viewBox="0 0 184.000000 184.000000"
 preserveAspectRatio="xMidYMid meet">
<metadata>
Created by potrace 1.16, written by Peter Selinger 2001-2019
</metadata>
<g transform="translate(0.000000,184.000000) scale(0.100000,-0.100000)"
fill="#000000" stroke="none">
<path d="M0 920 l0 -920 920 0 920 0 0 920 0 920 -920 0 -920 0 0 -920z m240
-142 l0 -233 335 -189 c231 -129 341 -186 353 -181 9 3 162 87 340 187 l322
180 0 107 c0 197 12 383 24 371 7 -7 12 -95 14 -254 l3 -242 -352 -199 c-193
-109 -357 -198 -364 -198 -14 0 -702 390 -710 403 -3 5 -2 121 1 259 6 209 9
247 21 236 10 -11 13 -65 13 -247z m971 0 l219 -131 -47 -27 c-27 -14 -78 -43
-115 -64 -38 -20 -68 -40 -68 -44 0 -4 30 -25 67 -46 l66 -38 -24 -18 c-13
-10 -26 -17 -29 -16 -3 2 -37 22 -76 44 l-72 42 -103 -60 c-57 -33 -111 -59
-119 -58 -19 4 -510 281 -510 288 0 7 266 150 279 150 5 0 110 -58 231 -129
l222 -128 94 51 c82 44 92 52 78 63 -9 6 -135 85 -280 175 -247 152 -262 163
-232 168 37 6 55 -3 419 -222z"/>
<path d="M588 697 c-43 -23 -78 -44 -78 -47 0 -4 339 -199 389 -223 12 -6 38
4 85 32 38 22 73 44 77 48 9 9 -361 233 -383 233 -7 -1 -48 -20 -90 -43z"/>
</g>
</svg>
